<svg width="24" height="24" viewBox="0 0 24 24" fill="none" xmlns="http://www.w3.org/2000/svg">
<path d="M23.9991 11.7629C23.9996 11.7629 24 11.7624 24 11.7619C23.9995 11.6424 23.9022 11.5435 23.7825 11.5379C19.4769 11.3748 16.8566 10.8256 15.0234 8.99228C13.1865 7.1552 12.6391 4.53269 12.4761 0.21745C12.4723 0.0974771 12.373 0 12.2511 0H11.7488C11.6288 0 11.5295 0.0974771 11.5239 0.21745C11.3608 4.53082 10.8135 7.1552 8.97654 8.99228C7.14151 10.8275 4.52294 11.3748 0.217432 11.5379C0.0974692 11.5417 0 11.641 0 11.7629V12.2653C0 12.3852 0.0974692 12.4846 0.217432 12.4902C4.52294 12.6533 7.14338 13.2025 8.97654 15.0359C10.8097 16.8692 11.357 19.4843 11.522 23.7825C11.5258 23.9025 11.6251 24 11.7469 24H12.2511C12.3711 24 12.4704 23.9025 12.4761 23.7825C12.641 19.4843 13.1883 16.8692 15.0215 15.0359C16.8566 13.2007 19.4751 12.6533 23.7806 12.4902C23.9006 12.4864 23.9981 12.3871 23.9981 12.2653V11.7638C23.9981 11.7633 23.9985 11.7629 23.9991 11.7629Z" fill="white"/>
</svg>
