<svg width="20" height="20" viewBox="0 0 20 20" fill="none" xmlns="http://www.w3.org/2000/svg">
<path fill-rule="evenodd" clip-rule="evenodd" d="M10.2149 19.9429C8.25212 19.9429 7.34 19.6552 5.75452 18.504C4.75166 19.799 1.57593 20.8111 1.43744 19.0796C1.43744 17.7798 1.1509 16.6815 0.826167 15.4824C0.439349 14.0051 0 12.36 0 9.97626C0 4.28308 4.65137 0 10.1623 0C15.6781 0 19.9999 4.49411 19.9999 10.029C20.0185 15.4783 15.6406 19.9139 10.2149 19.9429ZM10.2961 4.92098C7.6122 4.78189 5.52052 6.64764 5.05729 9.57337C4.67525 11.9955 5.35337 14.9452 5.93121 15.0987C6.2082 15.1658 6.90542 14.5999 7.34 14.1634C8.05859 14.662 8.89538 14.9614 9.76597 15.0315C12.5469 15.1659 14.9231 13.0396 15.1098 10.2496C15.2185 7.45382 13.0774 5.08577 10.2961 4.92578L10.2961 4.92098Z" fill="white"/>
</svg>
