<svg width="16" height="26" viewBox="0 0 16 26" fill="none" xmlns="http://www.w3.org/2000/svg">
<path d="M6.68827 18.3131C4.6232 18.104 2.76045 17.6073 1.16613 16.3904C0.967847 16.2388 0.762824 16.0924 0.583428 15.9238C-0.11527 15.2703 -0.18541 14.52 0.367614 13.7489C0.839707 13.0875 1.63282 12.911 2.45696 13.2914C2.61613 13.3633 2.7672 13.4561 2.91422 13.5541C5.88571 15.5461 9.96864 15.601 12.9509 13.6443C13.2477 13.4221 13.5633 13.2417 13.9288 13.1502C14.641 12.9725 15.3046 13.2274 15.6864 13.8351C16.1234 14.5279 16.118 15.2075 15.5798 15.7447C14.7557 16.5721 13.7629 17.1694 12.6609 17.5864C11.6183 17.9811 10.4758 18.1798 9.34683 18.3105C9.51678 18.4921 9.59771 18.581 9.70427 18.6856C11.2379 20.1887 12.7796 21.6879 14.3092 23.1962C14.8299 23.7112 14.9391 24.3477 14.6518 24.9464C14.3375 25.5999 13.6361 26.0299 12.9469 25.9841C12.5112 25.9541 12.1713 25.7423 11.8678 25.4456C10.7105 24.3085 9.53162 23.1923 8.39725 22.0342C8.06678 21.697 7.90762 21.7611 7.61627 22.0539C6.45222 23.2237 5.26929 24.3752 4.07692 25.5215C3.54278 26.0351 2.90613 26.1279 2.28566 25.8351C1.62743 25.5215 1.20659 24.8666 1.24031 24.2066C1.26189 23.7596 1.48715 23.4197 1.80143 23.1139C3.31932 21.6325 4.83497 20.1512 6.34836 18.6699C6.44818 18.5706 6.54259 18.466 6.68827 18.3131Z" fill="white"/>
<path d="M7.94674 13.1607C4.26171 13.1476 1.24031 10.1676 1.26054 6.56533C1.28213 2.92389 4.30622 -0.00912799 8.02767 2.13474e-05C11.7559 0.00917069 14.7489 2.98663 14.7314 6.66597C14.7112 10.2604 11.6695 13.1725 7.94674 13.1607ZM11.2959 6.57317C11.2984 6.15224 11.215 5.73499 11.0505 5.3454C10.8861 4.9558 10.6438 4.60155 10.3375 4.30299C10.0313 4.00444 9.66723 3.76748 9.26619 3.60572C8.86515 3.44396 8.43508 3.36061 8.00069 3.36044C7.56221 3.36003 7.12805 3.44429 6.72355 3.60829C6.31905 3.77229 5.95232 4.01274 5.64479 4.31561C5.33727 4.61848 5.0951 4.97769 4.93243 5.37226C4.76976 5.76683 4.68986 6.18886 4.69738 6.61369C4.69791 7.03478 4.78437 7.45162 4.95181 7.8402C5.11925 8.22878 5.36435 8.58143 5.67301 8.87785C5.98166 9.17427 6.34777 9.4086 6.75027 9.56736C7.15276 9.72612 7.58368 9.80616 8.01822 9.80289C8.45272 9.80119 8.88256 9.71615 9.28296 9.55266C9.68336 9.38917 10.0464 9.15047 10.3511 8.85033C10.6558 8.5502 10.8962 8.19456 11.0584 7.80395C11.2205 7.41334 11.3012 6.99548 11.2959 6.57448V6.57317Z" fill="white"/>
</svg>
