<svg width="20" height="20" viewBox="0 0 20 20" fill="none" xmlns="http://www.w3.org/2000/svg">
<path d="M19.1376 9.16667C18.9166 9.16667 18.7046 9.07887 18.5484 8.92259C18.3921 8.76631 18.3043 8.55435 18.3043 8.33333C18.3025 6.56576 17.5996 4.8711 16.3497 3.62124C15.0999 2.37137 13.4052 1.66843 11.6376 1.66666C11.4166 1.66666 11.2046 1.57887 11.0484 1.42259C10.8921 1.26631 10.8043 1.05434 10.8043 0.833331C10.8043 0.612317 10.8921 0.400356 11.0484 0.244075C11.2046 0.0877951 11.4166 -2.27056e-06 11.6376 -2.27056e-06C13.847 0.00242406 15.9652 0.881177 17.5275 2.44345C19.0898 4.00573 19.9685 6.12394 19.9709 8.33333C19.9709 8.55435 19.8832 8.76631 19.7269 8.92259C19.5706 9.07887 19.3586 9.16667 19.1376 9.16667ZM16.6376 8.33333C16.6376 7.00725 16.1108 5.73548 15.1732 4.7978C14.2355 3.86012 12.9637 3.33333 11.6376 3.33333C11.4166 3.33333 11.2046 3.42113 11.0484 3.57741C10.8921 3.73369 10.8043 3.94565 10.8043 4.16666C10.8043 4.38768 10.8921 4.59964 11.0484 4.75592C11.2046 4.9122 11.4166 5 11.6376 5C12.5217 5 13.3695 5.35119 13.9946 5.97631C14.6198 6.60143 14.9709 7.44928 14.9709 8.33333C14.9709 8.55435 15.0587 8.76631 15.215 8.92259C15.3713 9.07887 15.5833 9.16667 15.8043 9.16667C16.0253 9.16667 16.2373 9.07887 16.3935 8.92259C16.5498 8.76631 16.6376 8.55435 16.6376 8.33333ZM18.4568 18.47L19.2151 17.5958C19.6978 17.1116 19.9688 16.4558 19.9688 15.7721C19.9688 15.0884 19.6978 14.4326 19.2151 13.9483C19.1893 13.9225 17.1843 12.38 17.1843 12.38C16.7031 11.9219 16.0639 11.6669 15.3995 11.6678C14.7352 11.6687 14.0967 11.9256 13.6168 12.385L12.0284 13.7233C10.7319 13.1867 9.55419 12.3993 8.56285 11.4063C7.57152 10.4132 6.78613 9.23411 6.25178 7.93666L7.58512 6.35333C8.04488 5.87348 8.30203 5.23489 8.30312 4.57033C8.3042 3.90577 8.04914 3.26635 7.59095 2.785C7.59095 2.785 6.04678 0.782498 6.02095 0.756664C5.54549 0.278121 4.90085 0.00584941 4.22631 -0.00132328C3.55176 -0.00849598 2.90147 0.250006 2.41595 0.718331L1.45762 1.55166C-4.20405 8.12 7.98762 20.2175 14.7726 20C15.4578 20.004 16.1368 19.8706 16.7695 19.6078C17.4023 19.3451 17.976 18.9582 18.4568 18.47Z" fill="white"/>
</svg>
