<svg width="129" height="129" viewBox="0 0 129 129" fill="none" xmlns="http://www.w3.org/2000/svg">
<path d="M94.4884 6.60634C98.3074 7.2068 100.917 10.7895 100.316 14.6085L96.1867 40.8786L122.457 45.0083C126.276 45.6089 128.885 49.1915 128.285 53.0105L121.764 94.4884C121.164 98.3073 117.581 100.917 113.762 100.316L87.4922 96.1867L83.3625 122.457C82.7619 126.276 79.1792 128.885 75.3603 128.285L33.8824 121.764C30.0634 121.164 27.4543 117.581 28.0544 113.762L32.1841 87.4922L5.91394 83.3625C2.09488 82.7621 -0.514375 79.1794 0.0859212 75.3603L6.60632 33.8824C7.20669 30.0633 10.7894 27.454 14.6085 28.0544L40.8786 32.1841L45.0083 5.91396C45.6087 2.09486 49.1914 -0.514427 53.0105 0.0859405L94.4884 6.60634Z" fill="#0083B5" fill-opacity="0.06"/>
</svg>
