<svg width="24" height="20" viewBox="0 0 24 20" fill="none" xmlns="http://www.w3.org/2000/svg">
<g clip-path="url(#clip0_39_854)">
<path fill-rule="evenodd" clip-rule="evenodd" d="M18.046 0H0.484985V19.5219H5.37294V13.1705H14.7389L19.012 19.5219H24.485L19.7731 13.1417C21.2366 12.9079 22.2902 12.3517 22.9339 11.4732C23.5776 10.5947 23.9 9.18989 23.9 7.31751V5.85401C23.9 4.74171 23.7826 3.86422 23.5776 3.19066C23.3727 2.5171 23.0215 1.93211 22.524 1.40583C21.9967 0.908381 21.4117 0.557181 20.7093 0.323392C20.0069 0.11844 19.1284 0.00102991 18.046 0.00102991V0ZM17.256 8.86856H5.37294V4.30297H17.256C17.9296 4.30297 18.3972 4.42037 18.632 4.62533C18.8658 4.83028 19.012 5.21032 19.012 5.76647V7.40506C19.012 7.99004 18.8658 8.37111 18.632 8.57606C18.3982 8.78101 17.9296 8.86856 17.256 8.86856Z" fill="white"/>
</g>
<defs>
<clipPath id="clip0_39_854">
<rect width="24" height="19.5219" fill="white"/>
</clipPath>
</defs>
</svg>
