<svg width="20" height="19" viewBox="0 0 20 19" fill="none" xmlns="http://www.w3.org/2000/svg">
<path d="M9.01424 0.615924C9.35584 -0.205369 10.5193 -0.205368 10.8609 0.615925L12.877 5.46334C13.021 5.80958 13.3467 6.04615 13.7204 6.07612L18.9536 6.49566C19.8403 6.56674 20.1998 7.67325 19.5243 8.25192L15.5371 11.6673C15.2523 11.9113 15.128 12.2941 15.215 12.6588L16.4331 17.7655C16.6395 18.6308 15.6983 19.3146 14.9392 18.851L10.4588 16.1144C10.1388 15.9189 9.73632 15.9189 9.41631 16.1144L4.93596 18.851C4.17686 19.3146 3.23561 18.6308 3.442 17.7655L4.66014 12.6588C4.74714 12.2941 4.62277 11.9113 4.33798 11.6673L0.350838 8.25192C-0.324699 7.67325 0.0348284 6.56674 0.921483 6.49566L6.15468 6.07612C6.52847 6.04615 6.85408 5.80958 6.99809 5.46334L9.01424 0.615924Z" fill="#FEB918"/>
</svg>
