<svg width="24" height="21" viewBox="0 0 24 21" fill="none" xmlns="http://www.w3.org/2000/svg">
<path fill-rule="evenodd" clip-rule="evenodd" d="M21.514 0.143667C21.8091 0.0164576 22.1321 -0.0274162 22.4493 0.016612C22.7666 0.0606403 23.0665 0.190961 23.3179 0.394011C23.5693 0.59706 23.763 0.865415 23.8788 1.17114C23.9946 1.47687 24.0282 1.8088 23.9762 2.13237L21.268 18.9581C21.0053 20.5811 19.2667 21.5118 17.8135 20.7034C16.5979 20.027 14.7924 18.985 13.1684 17.8977C12.3564 17.3534 9.86912 15.6106 10.1748 14.3704C10.4375 13.31 14.6169 9.32522 17.0051 6.95614C17.9424 6.02539 17.515 5.48846 16.408 6.34461C13.6592 8.4703 9.2458 11.7029 7.78661 12.6128C6.49937 13.4151 5.82828 13.5521 5.02584 13.4152C3.56187 13.1656 2.20418 12.7792 1.09605 12.3083C-0.401352 11.6723 -0.328512 9.56372 1.09486 8.94974L21.514 0.143667Z" fill="white"/>
</svg>
