<svg width="24" height="24" viewBox="0 0 24 24" fill="none" xmlns="http://www.w3.org/2000/svg">
<g clip-path="url(#clip0_71_2224)">
<path d="M9 4C9 6.209 7.209 8 5 8C2.791 8 1 6.209 1 4C1 1.791 2.791 0 5 0C7.209 0 9 1.791 9 4ZM14 0C11.791 0 10 1.791 10 4C10 6.209 11.791 8 14 8C16.209 8 18 6.209 18 4C18 1.791 16.209 0 14 0ZM19 14V20C19 22.209 17.209 24 15 24H4C1.791 24 0 22.209 0 20V14C0 11.791 1.791 10 4 10H15C17.209 10 19 11.791 19 14ZM21.765 11.886L21 12.651V20.401L21.765 21.166C22.59 21.991 24 21.407 24 20.24V12.811C24 11.645 22.59 11.062 21.765 11.886Z" fill="white"/>
</g>
<defs>
<clipPath id="clip0_71_2224">
<rect width="24" height="24" fill="white"/>
</clipPath>
</defs>
</svg>
