<svg width="26" height="17" viewBox="0 0 26 17" fill="none" xmlns="http://www.w3.org/2000/svg">
<path fill-rule="evenodd" clip-rule="evenodd" d="M25.4036 1.10036C25.5835 0.466607 25.4036 0 24.5424 0H21.6987C20.9751 0 20.6414 0.402768 20.4605 0.847321C20.4605 0.847321 19.0143 4.55696 16.9657 6.96661C16.3027 7.66536 16.0016 7.88705 15.6398 7.88705C15.4588 7.88705 15.1869 7.66536 15.1869 7.03045V1.10036C15.1869 0.338928 14.9876 0 14.3853 0H9.91337C9.46163 0 9.18972 0.352857 9.18972 0.688303C9.18972 1.40911 10.2145 1.57625 10.3196 3.60518V8.01357C10.3196 8.98045 10.1539 9.15571 9.79204 9.15571C8.8279 9.15571 6.48253 5.42866 5.09048 1.1642C4.82073 0.334285 4.54774 0 3.82084 0H0.97498C0.162497 0 0 0.402768 0 0.847321C0 1.63893 0.964146 5.57143 4.49032 10.7726C6.84111 14.3244 10.1506 16.25 13.1655 16.25C14.9735 16.25 15.1967 15.8229 15.1967 15.0858V12.4011C15.1967 11.5456 15.3678 11.375 15.9409 11.375C16.3634 11.375 17.086 11.5979 18.7738 13.3099C20.7021 15.34 21.0195 16.25 22.105 16.25H24.9486C25.7611 16.25 26.1685 15.8229 25.9345 14.9779C25.6766 14.1375 24.7558 12.9176 23.5349 11.4702C22.8719 10.6461 21.8775 9.75813 21.5752 9.31357C21.1538 8.74366 21.2741 8.48946 21.5752 7.98223C21.5752 7.98223 25.0418 2.84491 25.4025 1.10036" fill="white"/>
</svg>
