<svg width="246" height="229" viewBox="0 0 246 229" fill="none" xmlns="http://www.w3.org/2000/svg">
<path d="M216.252 95.497L37.9867 195.348C44.0178 214.822 62.1649 228.973 83.6164 229H160.033C182.72 228.973 202.264 213.018 206.836 190.799H212.567C231.032 190.799 246 175.833 246 157.371V128.719C246 111.502 232.984 97.328 216.252 95.497ZM226.895 157.371C226.895 165.282 220.479 171.697 212.567 171.697H207.789V114.394H212.567C220.479 114.394 226.895 120.809 226.895 128.719V157.371Z" fill="white" fill-opacity="0.1"/>
<path d="M221.204 40.8261L198.145 53.7417C197.232 41.2559 190.077 29.9654 178.982 23.8456C172.122 20.0269 164.269 18.3615 156.451 19.0688C154.476 19.315 152.515 18.5047 151.293 16.9379C148.459 13.2311 145.042 10.0033 141.174 7.38881C121.464 -5.9297 94.6891 -0.750031 81.3732 18.9569C61.1754 20.1433 45.4103 36.8641 45.4103 57.0904H64.5111C80.3389 57.0904 93.1668 69.9165 93.1668 85.742V112.545L74.066 123.244V85.742C74.066 80.4683 69.79 76.1929 64.5111 76.1929H45.4103C40.1314 76.1929 35.8554 80.4683 35.8554 85.742V144.648L0 164.731L10.7504 183.919L11.3772 185.042L232.586 61.1374L221.204 40.8261ZM112.272 85.742C112.272 69.9165 125.1 57.0904 140.928 57.0904H192.168L158.063 76.1929H140.928C135.653 76.1929 131.377 80.4683 131.377 85.742V91.141L112.272 101.845V85.742Z" fill="white" fill-opacity="0.1"/>
</svg>
