<svg width="206" height="206" viewBox="0 0 206 206" fill="none" xmlns="http://www.w3.org/2000/svg">
<g clip-path="url(#clip0_93_105)">
<path d="M103 78.6834C103 78.6834 60.0833 48.3242 60.0833 23.6042C60.0833 10.5661 69.6881 0 81.5417 0C93.3952 0 103 10.5661 103 23.6042C103 10.5661 112.605 0 124.458 0C136.312 0 145.917 10.5661 145.917 23.6042C145.917 48.3242 103 78.6834 103 78.6834ZM111.729 132.93C117.102 137.814 120.167 144.732 120.167 151.994V206H35.741L8.98675 176.714C3.21017 170.388 0 162.131 0 153.556V47.2083C0 34.6252 10.8236 24.5741 23.6728 25.8616C34.8397 26.9774 42.9167 37.2088 42.9167 48.4357V82.3742C42.9167 82.3742 36.3933 87.6616 35.1316 89.0521C23.1149 102.288 22.6428 122.656 34.0587 136.423L63.5596 166.225L75.6106 154.174L47.7748 126.063C42.5991 119.815 41.3202 110.854 45.4402 103.867C51.7832 93.1034 65.9543 91.361 74.6836 99.292L111.738 132.939L111.729 132.93ZM160.577 103.867C154.234 93.1034 140.063 91.361 131.334 99.292L115.772 113.42L123.274 120.235C131.153 127.394 135.848 137.29 136.896 147.805L158.242 126.072C163.418 119.823 164.697 110.862 160.577 103.875V103.867ZM184.55 25.75C172.697 25.75 163.092 35.3547 163.092 47.2083V82.3657C163.092 82.3657 169.615 87.653 170.877 89.0435C182.894 102.279 183.366 122.647 171.95 136.415L137.333 171.504V206H170.259L197.013 176.714C202.79 170.388 206 162.131 206 153.556V47.2083C206 35.3547 196.404 25.75 184.55 25.75Z" fill="white" fill-opacity="0.1"/>
</g>
<defs>
<clipPath id="clip0_93_105">
<rect width="206" height="206" fill="white"/>
</clipPath>
</defs>
</svg>
