<svg width="221" height="221" viewBox="0 0 221 221" fill="none" xmlns="http://www.w3.org/2000/svg">
<g clip-path="url(#clip0_93_100)">
<path d="M110.5 46.0417C123.217 46.0417 133.521 56.3458 133.521 69.0625C133.521 81.7792 123.217 92.0833 110.5 92.0833C97.7833 92.0833 87.4792 81.7792 87.4792 69.0625C87.4792 56.3458 97.7833 46.0417 110.5 46.0417ZM147.333 128.917V156.542C147.333 164.673 143.733 171.92 138.125 176.984V211.792C138.125 216.884 134 221 128.917 221C123.834 221 119.708 216.884 119.708 211.792V184.167H101.292V211.792C101.292 216.884 97.1663 221 92.0833 221C87.0003 221 82.875 216.884 82.875 211.792V176.984C77.2671 171.929 73.6667 164.673 73.6667 156.542V128.917C73.6667 113.686 86.0611 101.292 101.292 101.292H119.708C134.939 101.292 147.333 113.686 147.333 128.917ZM46.0417 46.0417C58.7584 46.0417 69.0625 35.7375 69.0625 23.0208C69.0625 10.3041 58.7584 0 46.0417 0C33.325 0 23.0208 10.3041 23.0208 23.0208C23.0208 35.7375 33.325 46.0417 46.0417 46.0417ZM69.0625 69.0625C69.0625 65.4528 69.6702 62.0181 70.545 58.6755C65.8764 56.53 60.7197 55.25 55.25 55.25H36.8333C16.5197 55.25 0 71.7697 0 92.0833V119.708C0 133.281 7.45875 145.031 18.4167 151.422V211.792C18.4167 216.884 22.542 221 27.625 221C32.708 221 36.8333 216.884 36.8333 211.792V156.542H55.25V128.917C55.25 113.115 63.2612 99.1645 75.4162 90.8678C71.4567 84.5141 69.0625 77.083 69.0625 69.0625ZM174.958 46.0417C187.675 46.0417 197.979 35.7375 197.979 23.0208C197.979 10.3041 187.675 0 174.958 0C162.242 0 151.938 10.3041 151.938 23.0208C151.938 35.7375 162.242 46.0417 174.958 46.0417ZM220.788 153.116L212.722 88.5934C210.355 69.5874 194.121 55.25 174.958 55.25C166.081 55.25 157.914 58.4177 151.385 63.6112C151.624 65.416 151.938 67.1932 151.938 69.0625C151.938 77.083 149.543 84.5233 145.584 90.8678C157.739 99.1645 165.75 113.115 165.75 128.917V156.542C165.75 166.459 162.463 176.091 156.542 183.992V184.167H184.167V211.792C184.167 216.875 188.283 221 193.375 221C198.467 221 202.583 216.875 202.583 211.792V182.436C206.948 180.879 210.954 178.375 214.085 174.829C219.324 168.89 221.764 160.971 220.788 153.116Z" fill="white" fill-opacity="0.1"/>
</g>
<defs>
<clipPath id="clip0_93_100">
<rect width="221" height="221" fill="white"/>
</clipPath>
</defs>
</svg>
