<svg width="183" height="54" viewBox="0 0 183 54" fill="none" xmlns="http://www.w3.org/2000/svg">
<path d="M75.9765 6.78732L81.5743 13.9329H78.9569L73.6838 7.30483V13.9329H71.4867V0H73.6838V6.24991L78.7658 0H81.3833L75.9765 6.78732Z" fill="#303242"/>
<path d="M82.0027 13.9329V11.8231C82.8688 11.9425 83.4993 11.7236 83.8941 11.1662C84.3017 10.5956 84.5055 9.56063 84.5055 8.06119V0H93.4659V13.9329H91.2688V2.18946H86.7026V8.02138C86.7026 10.4497 86.225 12.1084 85.2697 12.9974C84.4164 13.767 83.3273 14.0789 82.0027 13.9329Z" fill="#303242"/>
<path d="M106.355 13.9329H104.158V4.47844L97.8528 13.9329H96.1334V0H98.3305V9.45448L104.635 0H106.355V13.9329Z" fill="#303242"/>
<path d="M116.954 5.7125V0H119.152V13.9329H116.954V7.90195H111.223V13.9329H109.026V0H111.223V5.7125H116.954Z" fill="#303242"/>
<path d="M132.046 13.9329H129.849V4.47844L123.544 13.9329H121.825V0H124.022V9.45448L130.327 0H132.046V13.9329Z" fill="#303242"/>
<path d="M139.207 6.78732L144.805 13.9329H142.187L136.914 7.30483V13.9329H134.717V0H136.914V6.24991L141.996 0H144.614L139.207 6.78732Z" fill="#303242"/>
<path d="M157.59 13.9329H155.221L154.285 11.1264H148.591L147.655 13.9329H145.267L150.12 0H152.756L157.59 13.9329ZM151.438 2.68706L149.317 8.97678H153.559L151.438 2.68706Z" fill="#303242"/>
<path d="M81.517 19.9042V31.6476H82.9499V36.5042H80.7528V33.8371H72.633V36.5042H70.4359V31.6476H71.6778C72.4547 30.5993 72.8432 29.0004 72.8432 26.8507V19.9042H81.517ZM74.085 31.6476H79.3199V22.0538H75.0403V26.8905C75.0403 28.9606 74.7219 30.5463 74.085 31.6476Z" fill="#303242"/>
<path d="M95.8542 32.0059C94.5169 33.3992 92.8802 34.0958 90.9442 34.0958C89.0082 34.0958 87.3651 33.3992 86.015 32.0059C84.6776 30.5993 84.0089 28.8876 84.0089 26.8706C84.0089 24.8537 84.6776 23.1485 86.015 21.7553C87.3651 20.3487 89.0082 19.6454 90.9442 19.6454C92.8802 19.6454 94.5169 20.3487 95.8542 21.7553C97.2044 23.1485 97.8794 24.8537 97.8794 26.8706C97.8794 28.8876 97.2044 30.5993 95.8542 32.0059ZM87.5625 30.4534C88.4923 31.3955 89.6195 31.8666 90.9442 31.8666C92.2815 31.8666 93.4024 31.3955 94.3067 30.4534C95.2238 29.498 95.6823 28.3037 95.6823 26.8706C95.6823 25.4375 95.2238 24.2499 94.3067 23.3078C93.4024 22.3524 92.2815 21.8747 90.9442 21.8747C89.6068 21.8747 88.4796 22.3524 87.5625 23.3078C86.6582 24.2499 86.206 25.4375 86.206 26.8706C86.206 28.2905 86.6582 29.4847 87.5625 30.4534Z" fill="#303242"/>
<path d="M104.373 26.6915L109.971 33.8371H107.354L102.081 27.209V33.8371H99.8835V19.9042H102.081V26.1541L107.163 19.9042H109.78L104.373 26.6915Z" fill="#303242"/>
<path d="M110.344 19.9042H120.088V22.0936H116.324V33.8371H114.127V22.0936H110.344V19.9042Z" fill="#303242"/>
<path d="M132.125 32.0059C130.787 33.3992 129.15 34.0958 127.214 34.0958C125.278 34.0958 123.635 33.3992 122.285 32.0059C120.948 30.5993 120.279 28.8876 120.279 26.8706C120.279 24.8537 120.948 23.1485 122.285 21.7553C123.635 20.3487 125.278 19.6454 127.214 19.6454C129.15 19.6454 130.787 20.3487 132.125 21.7553C133.475 23.1485 134.15 24.8537 134.15 26.8706C134.15 28.8876 133.475 30.5993 132.125 32.0059ZM123.833 30.4534C124.763 31.3955 125.89 31.8666 127.214 31.8666C128.552 31.8666 129.673 31.3955 130.577 30.4534C131.494 29.498 131.953 28.3037 131.953 26.8706C131.953 25.4375 131.494 24.2499 130.577 23.3078C129.673 22.3524 128.552 21.8747 127.214 21.8747C125.877 21.8747 124.75 22.3524 123.833 23.3078C122.928 24.2499 122.476 25.4375 122.476 26.8706C122.476 28.2905 122.928 29.4847 123.833 30.4534Z" fill="#303242"/>
<path d="M136.154 19.9042H141.083C142.344 19.9042 143.395 20.3421 144.235 21.2178C145.089 22.0936 145.515 23.1817 145.515 24.4821C145.515 25.7693 145.089 26.8574 144.235 27.7464C143.395 28.6222 142.344 29.0601 141.083 29.0601H138.351V33.8371H136.154V19.9042ZM138.351 26.9104H141.083C141.733 26.9104 142.268 26.6848 142.688 26.2337C143.108 25.7693 143.318 25.1854 143.318 24.4821C143.318 23.7788 143.108 23.2016 142.688 22.7505C142.268 22.286 141.733 22.0538 141.083 22.0538H138.351V26.9104Z" fill="#303242"/>
<path d="M157.161 33.8371H154.792L153.856 31.0306H148.162L147.226 33.8371H144.838L149.691 19.9042H152.327L157.161 33.8371ZM151.009 22.5912L148.888 28.8809H153.13L151.009 22.5912Z" fill="#303242"/>
<path d="M75.9765 46.5957L81.5743 53.7412H78.9569L73.6838 47.1132V53.7412H71.4867V39.8083H73.6838V46.0582L78.7658 39.8083H81.3833L75.9765 46.5957Z" fill="#303242"/>
<path d="M94.3594 53.7412H91.9903L91.0542 50.9348H85.3608L84.4246 53.7412H82.0364L86.8892 39.8083H89.5257L94.3594 53.7412ZM88.2075 42.4954L86.0868 48.7851H90.3282L88.2075 42.4954Z" fill="#303242"/>
<path d="M94.8018 53.7412V51.6314C95.6679 51.7508 96.2984 51.5319 96.6932 50.9746C97.1008 50.404 97.3046 49.369 97.3046 47.8695V39.8083H106.265V53.7412H104.068V41.9978H99.5017V47.8297C99.5017 50.258 99.0241 51.9167 98.0688 52.8057C97.2154 53.5754 96.1264 53.8872 94.8018 53.7412Z" fill="#303242"/>
<path d="M120.052 39.5496C121.988 39.5496 123.624 40.2529 124.962 41.6594C126.312 43.0527 126.987 44.7578 126.987 46.7748C126.987 48.7917 126.312 50.5035 124.962 51.9101C123.624 53.3034 121.988 54 120.052 54C118.269 54 116.74 53.4029 115.466 52.2086C114.206 51.0144 113.467 49.5017 113.25 47.6705H111.13V53.7412H108.932V39.8083H111.13V45.481H113.308C113.601 43.7693 114.365 42.3561 115.6 41.2414C116.848 40.1135 118.332 39.5496 120.052 39.5496ZM120.052 41.7788C118.702 41.7788 117.574 42.2499 116.67 43.192C115.766 44.1342 115.314 45.3284 115.314 46.7748C115.314 48.1946 115.766 49.3889 116.67 50.3575C117.6 51.2997 118.727 51.7707 120.052 51.7707C121.389 51.7707 122.51 51.2997 123.414 50.3575C124.331 49.4021 124.79 48.2079 124.79 46.7748C124.79 45.3417 124.331 44.1541 123.414 43.2119C122.51 42.2565 121.389 41.7788 120.052 41.7788Z" fill="#303242"/>
<path d="M138.168 46.6156L143.155 53.7412H140.69L136.086 47.2127V53.7412H133.889V47.2127L129.284 53.7412H126.8L131.806 46.6156L126.991 39.8083H129.475L133.889 46.1379V39.8083H136.086V46.1379L140.499 39.8083H142.964L138.168 46.6156Z" fill="#303242"/>
<path d="M152.702 45.5208V39.8083H154.899V53.7412H152.702V47.7103H146.971V53.7412H144.774V39.8083H146.971V45.5208H152.702Z" fill="#303242"/>
<path d="M168.749 51.9101C167.412 53.3034 165.775 54 163.839 54C161.903 54 160.26 53.3034 158.91 51.9101C157.573 50.5035 156.904 48.7917 156.904 46.7748C156.904 44.7578 157.573 43.0527 158.91 41.6594C160.26 40.2529 161.903 39.5496 163.839 39.5496C165.775 39.5496 167.412 40.2529 168.749 41.6594C170.099 43.0527 170.775 44.7578 170.775 46.7748C170.775 48.7917 170.099 50.5035 168.749 51.9101ZM160.458 50.3575C161.387 51.2997 162.515 51.7707 163.839 51.7707C165.177 51.7707 166.298 51.2997 167.202 50.3575C168.119 49.4021 168.577 48.2079 168.577 46.7748C168.577 45.3417 168.119 44.1541 167.202 43.2119C166.298 42.2565 165.177 41.7788 163.839 41.7788C162.502 41.7788 161.375 42.2565 160.458 43.2119C159.553 44.1541 159.101 45.3417 159.101 46.7748C159.101 48.1946 159.553 49.3889 160.458 50.3575Z" fill="#303242"/>
<path d="M180.574 38.415H175.224V36.544H180.574V38.415ZM183 53.7412H180.803V44.2868L174.498 53.7412H172.779V39.8083H174.976V49.2628L181.281 39.8083H183V53.7412Z" fill="#303242"/>
<path d="M60.755 53.7412L38.9749 26.8706L60.755 0H50.056L28.2759 26.8706L50.056 53.7412H60.755Z" fill="#F04A25"/>
<path d="M39.357 53.7412L17.5769 26.8706L39.357 0H28.658L8.40635 24.985V0H0V53.7412H8.40635V28.7563L28.658 53.7412H39.357Z" fill="#0083B5"/>
</svg>
