<svg width="40" height="40" viewBox="0 0 40 40" fill="none" xmlns="http://www.w3.org/2000/svg">
<path d="M31.6667 7.72727H26.6667V6.04545C26.6667 4.70732 26.1399 3.42399 25.2022 2.47778C24.2645 1.53157 22.9927 1 21.6667 1H18.3333C17.0072 1 15.7355 1.53157 14.7978 2.47778C13.8601 3.42399 13.3333 4.70732 13.3333 6.04545V7.72727H8.33333C6.12401 7.72994 4.00593 8.61676 2.4437 10.1932C0.88147 11.7696 0.00264643 13.907 0 16.1364L0 29.5909C0.00264643 31.8203 0.88147 33.9577 2.4437 35.5341C4.00593 37.1105 6.12401 37.9973 8.33333 38H31.6667C33.876 37.9973 35.9941 37.1105 37.5563 35.5341C39.1185 33.9577 39.9974 31.8203 40 29.5909V16.1364C39.9974 13.907 39.1185 11.7696 37.5563 10.1932C35.9941 8.61676 33.876 7.72994 31.6667 7.72727ZM16.6667 6.04545C16.6667 5.59941 16.8423 5.17163 17.1548 4.85623C17.4674 4.54083 17.8913 4.36364 18.3333 4.36364H21.6667C22.1087 4.36364 22.5326 4.54083 22.8452 4.85623C23.1577 5.17163 23.3333 5.59941 23.3333 6.04545V7.72727H16.6667V6.04545ZM25 24.5455H21.6667V27.9091C21.6667 28.3551 21.4911 28.7829 21.1785 29.0983C20.8659 29.4137 20.442 29.5909 20 29.5909C19.558 29.5909 19.134 29.4137 18.8215 29.0983C18.5089 28.7829 18.3333 28.3551 18.3333 27.9091V24.5455H15C14.558 24.5455 14.134 24.3683 13.8215 24.0529C13.5089 23.7375 13.3333 23.3097 13.3333 22.8636C13.3333 22.4176 13.5089 21.9898 13.8215 21.6744C14.134 21.359 14.558 21.1818 15 21.1818H18.3333V17.8182C18.3333 17.3721 18.5089 16.9444 18.8215 16.629C19.134 16.3136 19.558 16.1364 20 16.1364C20.442 16.1364 20.8659 16.3136 21.1785 16.629C21.4911 16.9444 21.6667 17.3721 21.6667 17.8182V21.1818H25C25.442 21.1818 25.8659 21.359 26.1785 21.6744C26.4911 21.9898 26.6667 22.4176 26.6667 22.8636C26.6667 23.3097 26.4911 23.7375 26.1785 24.0529C25.8659 24.3683 25.442 24.5455 25 24.5455Z" fill="#0083B5"/>
</svg>
