<svg width="40" height="40" viewBox="0 0 40 40" fill="none" xmlns="http://www.w3.org/2000/svg">
<path d="M37.1753 4.78333L33.3736 12.4867C30.6419 9.56833 26.9736 7.55333 22.8419 6.90833L24.4169 3.71667C25.5486 1.42333 27.8386 0 30.3953 0H34.2003C35.3536 0 36.4069 0.585 37.0153 1.565C37.6253 2.545 37.6853 3.74833 37.1753 4.78333ZM17.1586 6.90833L15.5836 3.71667C14.4519 1.42333 12.1619 0 9.60527 0H5.8386C4.68527 0 3.63194 0.585 3.0236 1.56333C2.4136 2.545 2.35527 3.74833 2.86527 4.78333L6.65194 12.4617C9.38027 9.55667 13.0403 7.55167 17.1586 6.90833ZM35.0019 25C35.0019 33.2717 28.2719 40 20.0019 40C11.7319 40 5.00027 33.2717 5.00027 25C5.00027 16.7283 11.7303 10 20.0003 10C28.2703 10 35.0019 16.7283 35.0019 25ZM26.9303 24.0167C26.9303 23.5067 26.4869 22.9433 25.7703 22.9433H22.2036L21.2586 19.3183C21.1086 18.7433 20.5936 18.3433 20.0003 18.3333C19.4086 18.345 18.8919 18.7433 18.7419 19.3183L17.7969 22.9433H14.2303C13.5136 22.9433 13.0703 23.505 13.0703 24.0167C13.0703 24.6183 13.4886 25.125 13.9686 25.3917L16.4519 26.7717L15.3503 29.7767C15.1369 30.3583 15.3303 31.0117 15.8253 31.385C16.3319 31.7667 17.0303 31.7617 17.5303 31.3733L20.0003 29.4633L22.4703 31.3733C22.9719 31.76 23.6703 31.765 24.1753 31.385C24.6703 31.0117 24.8636 30.36 24.6503 29.7767L23.5486 26.7717L26.0319 25.3917C26.5119 25.125 26.9303 24.6183 26.9303 24.0167Z" fill="#0083B5"/>
</svg>
