<svg width="40" height="40" viewBox="0 0 40 40" fill="none" xmlns="http://www.w3.org/2000/svg">
<g clip-path="url(#clip0_87_181)">
<path d="M22.1167 12.467C20.7617 13.822 20 15.6586 20 17.5753V19.167C20 19.627 20.3733 20.0003 20.8333 20.0003H22.425C24.34 20.0003 26.1783 19.2386 27.5317 17.8853L38.7233 6.69364C40.14 5.27697 40.4117 2.96697 39.1433 1.41531C37.685 -0.368026 35.05 -0.46636 33.4617 1.12197L22.1167 12.467ZM29.89 20.2403C27.8983 22.2336 25.2467 23.332 22.425 23.332H20C18.16 23.332 16.6667 21.8386 16.6667 19.9986V17.5736C16.6667 14.7536 17.765 12.1036 19.7583 10.1086L28.8717 0.99864C27.71 0.381974 26.405 0.000307101 25 0.000307101H8.33333C3.73833 0.000307101 0 3.73864 0 8.33364V31.667C0 36.262 3.73833 40.0003 8.33333 40.0003H25C29.595 40.0003 33.3333 36.262 33.3333 31.667V16.7986L29.89 20.242V20.2403ZM13.6117 27.777L10.8 30.5886C10.0817 31.307 9.14167 31.6686 8.19833 31.6686C7.31 31.6686 6.42167 31.347 5.71333 30.6986L4.59833 29.7336C3.90333 29.1303 3.82833 28.0786 4.43 27.382C5.035 26.687 6.08667 26.612 6.78167 27.2136L7.93 28.2103C8.10167 28.3653 8.31 28.3636 8.44167 28.232L11.2533 25.4203C11.905 24.7686 12.9583 24.7686 13.61 25.4203C14.2617 26.072 14.2633 27.1253 13.6117 27.777ZM13.6117 19.4436L10.8 22.2553C10.0817 22.9736 9.14167 23.3353 8.19833 23.3353C7.31 23.3353 6.42167 23.0136 5.71333 22.3653L4.59833 21.4003C3.90333 20.797 3.82833 19.7436 4.43 19.0486C5.035 18.3503 6.08667 18.2803 6.78167 18.8803L7.93 19.877C8.10167 20.032 8.31 20.0303 8.44167 19.8986L11.2533 17.087C11.905 16.4353 12.9583 16.4353 13.61 17.087C14.2617 17.7386 14.2633 18.792 13.6117 19.4436ZM13.6117 11.177L10.8 13.9886C10.0817 14.707 9.14167 15.0686 8.19833 15.0686C7.31 15.0686 6.42167 14.747 5.71333 14.0986L4.59833 13.1336C3.90333 12.5303 3.82833 11.477 4.43 10.782C5.035 10.0853 6.08667 10.0136 6.78167 10.6136L7.93 11.6103C8.10167 11.767 8.31 11.7636 8.44167 11.632L11.2533 8.82031C11.905 8.16864 12.9583 8.16864 13.61 8.82031C14.2617 9.47197 14.2633 10.5253 13.6117 11.177ZM26.6667 29.9986H20C19.0783 29.9986 18.3333 29.2536 18.3333 28.332C18.3333 27.4103 19.0783 26.6653 20 26.6653H26.6667C27.5883 26.6653 28.3333 27.4103 28.3333 28.332C28.3333 29.2536 27.5883 29.9986 26.6667 29.9986Z" fill="#0083B5"/>
</g>
<defs>
<clipPath id="clip0_87_181">
<rect width="40" height="40" fill="white"/>
</clipPath>
</defs>
</svg>
